PathFileType	4	(X/Y/Z)	C:/Users/beibeiliu/ov580/test_trc\sequence.28_training_dense_left.trc
DataRate	CameraRate	NumFrames	NumMarkers	Units	OrigDataRate	OrigDataStartFrame	OrigNumFrames
120	120	18	19	mm	120	84	333
Frame#	Time	ThumbCMC			ThumbMCP			ThumbIP			ThumbTip			IndexMCP			IndexPIP			IndexTip			MiddleMCP			MiddlePIP			MiddleTip			RingMCP			RingPIP			RingTip			PinkyMCP			PinkyPIP			PinkyTip			BackHand1			BackHand2			BackHand3	
		X0	Y0	Z0	X1	Y1	Z1	X2	Y2	Z2	X3	Y3	Z3	X4	Y4	Z4	X5	Y5	Z5	X6	Y6	Z6	X7	Y7	Z7	X8	Y8	Z8	X9	Y9	Z9	X10	Y10	Z10	X11	Y11	Z11	X12	Y12	Z12	X13	Y13	Z13	X14	Y14	Z14	X15	Y15	Z15	X16	Y16	Z16	X17	Y17	Z17	X18	Y18	Z18	
83	0.691667	-147.175	-5.65399	42.4974	-142.068	-21.8436	13.2589	-144.716	-21.9962	-10.7649	-150.85	-24.66	-33.6229	-133.659	24.9574	-16.0018	-133.233	18.1504	-42.5561	-135.904	1.53404	-60.7262	-155.323	36.6198	-25.9859	-156.563	25.4288	-52.3498	-163.04	0.103982	-63.1593	-172.83	36.6752	-18.6509	-172.681	34.3743	-44.329	-171.336	20.3736	-66.282	-193.894	27.1991	-14.0324	-193.175	14.0056	-33.4982	-184.73	-10.6164	-35.8308	-181.243	35.3653	23.5602	-186.123	30.4317	49.8929	-156.264	28.6931	40.6168	
84	0.7	-143.999	-3.42352	40.176	-141.109	-19.3797	12.1214	-140.002	-23.6317	-11.608	-149.721	-24.5543	-31.9921	-134.284	28.3753	-13.5902	-133.93	20.9924	-43.1707	-131.799	7.63602	-59.482	-152.475	36.2299	-24.1402	-155.773	28.5711	-49.9226	-159.486	-1.1126	-61.5019	-174.91	38.5358	-18.6306	-170.842	34.2943	-45.7238	-168.998	22.0239	-65.473	-190.373	27.8345	-14.5027	-192.273	13.315	-32.4162	-182.928	-9.48534	-33.3965	-182.532	37.8911	25.481	-185.531	28.8351	53.5463	-155.944	29.2822	42.507	
85	0.708333	-144.532	-4.4828	42.9115	-143.237	-16.5933	13.2086	-144.009	-20.1669	-8.95117	-149.239	-22.7643	-32.0662	-136.166	29.9619	-14.5681	-133.7	25.5707	-36.7358	-132.388	12.0793	-59.0439	-153.696	37.4858	-20.1685	-153.471	25.7813	-49.7964	-158.68	0.460197	-58.9979	-177.371	39.4507	-17.5359	-170.469	36.3394	-42.2249	-172.043	25.2286	-65.1121	-194.575	29.0338	-15.5041	-190.344	14.6371	-30.8734	-184.807	-13.2198	-31.58	-184.447	35.065	28.7725	-184.083	29.8692	51.8304	-157.293	27.8359	46.3622	
86	0.716667	-146.543	-3.89952	44.2268	-142.47	-17.8882	13.7484	-141.101	-23.0276	-7.57747	-149.605	-22.215	-34.2562	-138.127	30.1461	-11.7398	-129.797	26.0898	-37.459	-129.913	14.1107	-60.4136	-159.082	37.353	-18.3486	-155.398	28.353	-46.0642	-161.748	-3.7162	-58.8315	-175.886	37.3499	-15.8325	-174.201	35.9359	-43.634	-172.786	28.7466	-60.9212	-192.215	27.8676	-10.8681	-186.85	12.8642	-29.9585	-185.888	-9.95156	-31.5045	-185.494	32.2112	31.1392	-183.965	29.6727	53.1066	-156.801	28.7771	46.6152	
87	0.725	-145.366	-6.16063	43.9202	-141.518	-20.1826	13.2113	-144.937	-20.025	-8.92978	-147.726	-24.9794	-32.4132	-136.826	30.7318	-13.0725	-132.292	27.7073	-35.7031	-128.893	17.9601	-59.1207	-155.281	36.8774	-19.996	-153.654	26.691	-46.8796	-159.538	-0.21404	-56.9915	-179.271	37.4721	-14.9699	-173.692	36.1553	-39.4458	-171.937	28.079	-61.9482	-193.168	26.9432	-9.29368	-191.276	12.5778	-30.9679	-186.627	-9.13693	-31.8956	-185.255	33.4917	31.6119	-187.143	26.2545	57.5761	-158.244	27.7257	46.971	
88	0.733333	-144.99	-6.78215	41.5325	-143.354	-20.2669	14.0446	-141.682	-23.4998	-13.0993	-152.069	-23.2562	-33.8893	-138.397	28.7861	-10.5497	-130.346	25.9823	-38.3945	-130.74	20.7709	-57.5725	-159.004	35.7929	-22.5076	-157.767	22.9162	-48.4666	-159.678	-2.28652	-57.0786	-180.706	34.542	-13.9363	-174.984	33.8621	-38.127	-174.485	27.3564	-60.1334	-193.618	26.4304	-9.34349	-191.37	15.0198	-29.0271	-189.541	-7.80613	-34.7077	-182.903	31.331	33.2873	-187.179	26.1679	55.9235	-156.517	26.0916	42.7943	
89	0.741667	-146.895	-8.05783	40.9216	-144.225	-20.9826	13.5038	-145.482	-23.1452	-11.3482	-149.919	-27.1855	-30.4562	-138.706	26.9299	-12.1343	-132.483	24.5864	-38.2437	-126.925	18.9749	-60.229	-158.861	33.56	-22.8102	-155.867	19.7976	-48.3926	-163.319	-7.20302	-56.7009	-177.777	33.4995	-15.9232	-177.335	32.8359	-40.229	-173.296	24.4062	-60.4597	-198.177	25.3599	-8.04958	-192.934	12.8209	-30.0481	-185.663	-10.8731	-33.6661	-186.285	29.9485	31.3509	-188.961	24.9826	56.0369	-157.023	25.3627	43.4201	
90	0.75	-145.283	-10.746	43.0993	-145.853	-21.645	13.364	-143.736	-26.5142	-13.7666	-152.895	-25.6427	-33.358	-141.172	27.3424	-11.1521	-134.763	26.1442	-34.511	-130.968	19.2562	-60.5978	-159.685	31.0115	-18.5616	-158.642	21.0778	-46.6521	-165.121	-11.113	-54.7947	-178.239	31.6488	-13.8506	-177.252	31.0064	-41.0864	-177.02	21.9972	-65.7043	-199.15	24.2182	-12.8599	-192.733	13.5202	-29.8919	-187.158	-8.84805	-34.2793	-182.295	27.3197	31.1351	-189.704	23.1425	52.7451	-156.568	24.1854	45.2252	
91	0.758333	-145.647	-10.3478	42.1051	-142.966	-24.1947	12.9506	-143.988	-27.5678	-10.8199	-152.234	-27.2689	-30.7259	-137.932	26.8671	-15.129	-136.098	25.9876	-36.2199	-131.444	19.8248	-59.0791	-158.286	30.5047	-18.273	-158.223	15.8169	-49.1856	-165.808	-12.7905	-53.3265	-179.328	32.7743	-19.8771	-180.694	29.726	-40.9081	-179.36	20.8931	-62.6882	-198.54	22.7468	-8.15492	-196.683	9.81086	-30.8767	-190.207	-14.922	-33.8955	-183.675	28.6033	29.7872	-188.065	24.0267	52.5673	-160.006	22.9236	41.888	
92	0.766667	-147.945	-10.7222	42.3284	-147.483	-22.2208	14.569	-145.242	-24.3394	-12.9848	-155.339	-23.3085	-32.1427	-141.949	26.8475	-11.5528	-135.698	27.3679	-37.473	-133.797	21.9438	-56.9874	-163.031	31.9721	-20.6157	-162.25	17.5968	-47.6683	-165.012	-14.7681	-50.8644	-182.841	32.495	-18.4101	-180.781	29.1075	-43.5555	-176.818	21.4506	-61.4386	-200.713	23.8038	-11.3243	-196.126	10.1548	-31.1543	-187.537	-15.4959	-30.0837	-188.367	28.2613	29.4729	-188.698	21.5967	56.3043	-165.074	21.974	44.8554	
93	0.775	-150.435	-9.50098	41.708	-147.255	-20.5212	10.3625	-147.954	-23.629	-9.99092	-152.226	-26.0414	-33.6857	-139.311	27.8436	-9.92251	-134.882	28.2755	-34.957	-131.02	22.4331	-60.1772	-160.066	32.0196	-24.2365	-160.912	19.0959	-48.0234	-168.97	-12.1542	-50.1395	-183.329	33.7877	-21.0067	-180.917	30.3648	-41.4907	-175.318	19.9702	-64.2377	-197.42	24.7492	-11.8298	-194.417	9.99134	-31.7374	-188.209	-15.4669	-27.6999	-184.356	30.114	29.6668	-187.409	21.8101	53.2161	-162.824	23.9433	44.4229	
94	0.783333	-153.032	-7.12004	41.8095	-145.54	-22.9993	11.1207	-146.358	-23.5778	-15.0091	-154.636	-23.8422	-32.7583	-138.893	28.3184	-14.6935	-138.431	29.4827	-37.5119	-133.574	23.0156	-58.8414	-159.915	33.0752	-24.7394	-160.608	17.4698	-49.9443	-170.431	-13.8525	-49.7801	-182.776	34.087	-20.2684	-179.478	30.9569	-41.9512	-179.704	20.5195	-66.7614	-198.334	24.6203	-13.077	-200.59	11.5485	-31.7667	-190.402	-15.265	-30.285	-185.355	28.054	28.9942	-190.094	24.5507	52.9345	-165.623	24.4935	42.3409	
95	0.791667	-153.35	-6.70943	40.2564	-147.446	-22.6951	12.6202	-148.957	-20.704	-13.8543	-153.769	-26.4067	-34.4247	-141.236	29.6888	-17.1142	-139.604	29.0426	-40.9831	-136.825	21.849	-64.7651	-165.243	34.0521	-25.4788	-162.625	21.3346	-49.1767	-171.546	-12.5086	-48.936	-185.972	34.0218	-21.1922	-183.508	31.2696	-41.7645	-181.366	21.4083	-63.2871	-203.99	24.9487	-11.7082	-198.577	6.72832	-33.8407	-188.657	-14.309	-29.0946	-188.985	31.878	25.6647	-190.832	22.3713	51.7292	-161.354	25.4222	41.7943	
96	0.8	-153.327	-7.1992	38.4647	-149.882	-19.5766	9.89385	-147.094	-23.9265	-17.0579	-156.363	-23.8133	-35.8919	-142.818	27.7661	-15.0128	-135.871	26.9374	-40.0244	-135.749	21.2629	-64.641	-166.877	31.8087	-22.2099	-166.723	17.877	-50.3092	-170.753	-11.7812	-49.8016	-183.386	33.4911	-20.5685	-182.177	30.554	-45.138	-181.783	19.9058	-64.6416	-201.475	23.9217	-15.6549	-197.737	7.74447	-33.4315	-193.423	-14.9171	-31.3855	-191.12	29.9883	25.6579	-194.451	25.7683	50.1456	-163.489	22.0376	43.0996	
97	0.808333	-154.945	-7.23478	39.2846	-149.615	-21.3136	11.086	-150.396	-23.1201	-11.6661	-156.26	-24.3673	-37.9231	-142.888	27.7495	-12.2337	-136.585	26.2126	-41.3992	-134.021	19.7846	-64.3231	-169.184	31.6329	-23.3078	-165.35	15.8214	-50.9427	-168.051	-14.1001	-49.5973	-185.205	32.634	-20.4904	-186.44	29.9562	-44.9079	-183.397	19.6517	-65.7271	-202.884	23.2151	-14.9798	-197.072	7.87707	-34.7976	-191.935	-16.3885	-34.0915	-188.812	29.8541	26.4706	-196.672	21.2855	52.9111	-166.98	24.2163	39.3988	
98	0.816667	-151.157	-8.38953	39.7372	-146.567	-24.4944	11.0935	-147.846	-24.055	-16.1688	-156.605	-24.0796	-35.138	-145.581	27.5506	-14.0731	-138.182	25.5957	-41.5266	-134.981	20.8141	-62.2517	-167.446	31.2164	-24.2089	-163.898	19.4344	-49.5069	-168.806	-15.6971	-49.9356	-186.752	31.9282	-21.3053	-186.912	29.468	-43.8887	-181.746	19.654	-64.102	-202.661	22.0103	-14.8014	-197.2	8.28672	-34.4659	-191.84	-17.159	-35.8776	-190.451	28.6469	24.9759	-197.125	20.981	52.2378	-165.397	21.08	43.2196	
99	0.825	-153.074	-6.24431	35.6515	-147.306	-21.8749	7.97385	-146.36	-26.366	-13.9905	-154.538	-27.853	-35.2712	-144.916	28.1363	-17.6793	-139.261	27.5359	-38.821	-135.486	21.1387	-63.6508	-167.42	31.4011	-23.8189	-163.674	16.3083	-51.605	-167.255	-16.1036	-51.899	-186.856	32.0874	-23.4764	-182.335	28.9983	-45.4678	-178.277	18.5987	-65.7395	-200.882	22.1589	-12.6153	-198.272	9.87802	-34.3663	-191.222	-13.1215	-35.3698	-191.898	29.4534	26.4259	-193.78	22.0456	49.6412	-167.214	24.0083	43.2575	
100	0.833333	-153.695	-9.4181	40.4672	-145.374	-23.6185	8.31062	-146.302	-26.2441	-13.143	-152.284	-28.3318	-36.2566	-143.312	27.0564	-15.0145	-139.583	27.0219	-38.1316	-136.961	21.4331	-65.2319	-165.625	31.2221	-28.1958	-163.857	17.3673	-51.3304	-165.492	-16.0128	-52.246	-184.346	31.5651	-19.8052	-180.884	28.8832	-44.046	-179.384	18.5861	-67.8646	-203.881	22.5358	-15.2286	-196.361	10.2529	-34.423	-190.589	-14.0248	-35.6476	-190.34	29.0489	25.6427	-191.822	19.6322	53.2537	-163.562	21.0803	41.3367	
